<?xml version="1.0" encoding="UTF-8" standalone="no"?><!DOCTYPE svg PUBLIC "-//W3C//DTD SVG 1.1//EN" "http://www.w3.org/Graphics/SVG/1.1/DTD/svg11.dtd"><svg width="100%" height="100%" viewBox="0 0 287 83" version="1.1" xmlns="http://www.w3.org/2000/svg" xmlns:xlink="http://www.w3.org/1999/xlink" xml:space="preserve" xmlns:serif="http://www.serif.com/" style="fill-rule:evenodd;clip-rule:evenodd;stroke-linejoin:round;stroke-miterlimit:2;"><g><g><path d="M12.593,52.232c-3.852,0 -6.765,-1.096 -8.739,-3.286c-1.974,-2.191 -2.961,-5.333 -2.961,-9.425l0,-2.889l7.511,0l0,3.467c0,3.274 1.372,4.911 4.116,4.911c1.349,0 2.372,-0.398 3.07,-1.192c0.698,-0.794 1.047,-2.082 1.047,-3.864c0,-2.118 -0.481,-3.984 -1.444,-5.597c-0.963,-1.613 -2.745,-3.551 -5.345,-5.814c-3.274,-2.889 -5.561,-5.501 -6.861,-7.836c-1.3,-2.335 -1.95,-4.971 -1.95,-7.908c0,-3.997 1.011,-7.09 3.033,-9.281c2.023,-2.191 4.96,-3.286 8.812,-3.286c3.803,0 6.68,1.095 8.63,3.286c1.95,2.191 2.925,5.332 2.925,9.425l0,2.094l-7.511,0l0,-2.6c0,-1.733 -0.337,-2.997 -1.011,-3.791c-0.674,-0.795 -1.661,-1.192 -2.961,-1.192c-2.648,0 -3.972,1.613 -3.972,4.839c0,1.83 0.493,3.539 1.48,5.128c0.987,1.589 2.781,3.515 5.381,5.778c3.322,2.888 5.609,5.512 6.861,7.872c1.252,2.359 1.878,5.128 1.878,8.305c0,4.141 -1.024,7.319 -3.07,9.534c-2.046,2.214 -5.019,3.322 -8.919,3.322Z" style="fill:#fff;fill-rule:nonzero;"/><rect x="29.132" y="0.954" width="7.944" height="50.556" style="fill:#fff;fill-rule:nonzero;"/><path d="M42.998,0.954l9.967,0l7.728,30.261l0.144,0l0,-30.261l7.078,0l0,50.556l-8.161,0l-9.534,-36.906l-0.144,0l0,36.906l-7.078,0l0,-50.556Z" style="fill:#fff;fill-rule:nonzero;"/><path d="M73.837,0.954l21.667,0l0,7.222l-13.722,0l0,13.361l10.905,0l0,7.223l-10.905,0l0,15.527l13.722,0l0,7.223l-21.667,0l0,-50.556Z" style="fill:#fff;fill-rule:nonzero;"/><path d="M100.054,0.954l11.772,0c4.093,0 7.078,0.951 8.956,2.853c1.877,1.902 2.816,4.827 2.816,8.775l0,3.105c0,5.249 -1.733,8.571 -5.2,9.967l0,0.145c1.926,0.577 3.286,1.757 4.081,3.538c0.794,1.782 1.191,4.165 1.191,7.15l0,8.884c0,1.444 0.049,2.612 0.145,3.503c0.096,0.89 0.337,1.769 0.722,2.636l-8.089,0c-0.289,-0.819 -0.481,-1.589 -0.578,-2.311c-0.096,-0.723 -0.144,-2.023 -0.144,-3.9l0,-9.245c0,-2.311 -0.373,-3.924 -1.119,-4.839c-0.747,-0.915 -2.035,-1.372 -3.864,-1.372l-2.745,0l0,21.667l-7.944,0l0,-50.556Zm10.833,21.667c1.589,0 2.781,-0.41 3.575,-1.228c0.795,-0.819 1.192,-2.191 1.192,-4.117l0,-3.9c0,-1.829 -0.325,-3.153 -0.975,-3.972c-0.65,-0.818 -1.673,-1.228 -3.07,-1.228l-3.611,0l0,14.445l2.889,0Z" style="fill:#fff;fill-rule:nonzero;"/><path d="M140.426,52.232c-3.852,0 -6.789,-1.096 -8.811,-3.286c-2.022,-2.191 -3.033,-5.333 -3.033,-9.425l0,-26.578c0,-4.093 1.011,-7.234 3.033,-9.425c2.022,-2.191 4.959,-3.286 8.811,-3.286c3.852,0 6.789,1.095 8.811,3.286c2.022,2.191 3.033,5.332 3.033,9.425l0,4.333l-7.511,0l0,-4.839c0,-3.322 -1.372,-4.983 -4.116,-4.983c-2.745,0 -4.117,1.661 -4.117,4.983l0,27.662c0,3.274 1.372,4.911 4.117,4.911c2.744,0 4.116,-1.637 4.116,-4.911l0,-9.895l-3.972,0l0,-7.222l11.483,0l0,16.539c0,4.092 -1.011,7.234 -3.033,9.425c-2.022,2.19 -4.959,3.286 -8.811,3.286Z" style="fill:#fff;fill-rule:nonzero;"/><rect x="157.398" y="0.954" width="7.944" height="50.556" style="fill:#fff;fill-rule:nonzero;"/><path d="M177.404,0.954l10.761,0l8.233,50.556l-7.944,0l-1.445,-10.039l0,0.144l-9.027,0l-1.445,9.895l-7.367,0l8.234,-50.556Zm8.666,33.8l-3.538,-24.989l-0.145,0l-3.467,24.989l7.15,0Z" style="fill:#fff;fill-rule:nonzero;"/></g><g><path d="M76.193,82.232c-1.61,0 -2.837,-0.458 -3.682,-1.375c-0.846,-0.917 -1.268,-2.21 -1.268,-3.881l0,-11.489c0,-1.67 0.422,-2.963 1.268,-3.88c0.845,-0.917 2.072,-1.375 3.682,-1.375c1.609,0 2.836,0.458 3.682,1.375c0.845,0.917 1.268,2.21 1.268,3.88l0,2.262l-3.178,0l0,-2.475c0,-1.325 -0.56,-1.987 -1.681,-1.987c-1.12,0 -1.68,0.662 -1.68,1.987l0,11.947c0,1.303 0.56,1.955 1.68,1.955c1.121,0 1.681,-0.652 1.681,-1.955l0,-3.27l3.178,0l0,3.025c0,1.671 -0.423,2.964 -1.268,3.881c-0.846,0.917 -2.073,1.375 -3.682,1.375Z" style="fill:#fff;fill-rule:nonzero;"/><path d="M88.079,82.232c-1.65,0 -2.913,-0.469 -3.789,-1.406c-0.876,-0.937 -1.314,-2.261 -1.314,-3.972l0,-11.244c0,-1.711 0.438,-3.036 1.314,-3.973c0.876,-0.937 2.139,-1.405 3.789,-1.405c1.65,0 2.913,0.468 3.789,1.405c0.876,0.937 1.314,2.262 1.314,3.973l0,11.244c0,1.711 -0.438,3.035 -1.314,3.972c-0.876,0.937 -2.139,1.406 -3.789,1.406Zm0,-3.056c1.161,0 1.741,-0.702 1.741,-2.108l0,-11.672c0,-1.406 -0.58,-2.109 -1.741,-2.109c-1.161,0 -1.742,0.703 -1.742,2.109l0,11.672c0,1.406 0.581,2.108 1.742,2.108Z" style="fill:#fff;fill-rule:nonzero;"/><path d="M95.443,60.537l4.216,0l3.27,12.803l0.061,0l0,-12.803l2.994,0l0,21.389l-3.452,0l-4.034,-15.614l-0.061,0l0,15.614l-2.994,0l0,-21.389Z" style="fill:#fff;fill-rule:nonzero;"/><path d="M112.859,82.232c-1.629,0 -2.862,-0.464 -3.697,-1.39c-0.835,-0.927 -1.253,-2.256 -1.253,-3.988l0,-1.222l3.178,0l0,1.467c0,1.385 0.581,2.077 1.742,2.077c0.57,0 1.003,-0.168 1.298,-0.504c0.296,-0.336 0.443,-0.881 0.443,-1.635c0,-0.896 -0.203,-1.685 -0.611,-2.368c-0.407,-0.682 -1.161,-1.502 -2.261,-2.459c-1.385,-1.223 -2.353,-2.328 -2.903,-3.316c-0.55,-0.988 -0.825,-2.103 -0.825,-3.345c0,-1.691 0.428,-3 1.284,-3.927c0.855,-0.927 2.098,-1.39 3.728,-1.39c1.609,0 2.826,0.463 3.651,1.39c0.825,0.927 1.237,2.256 1.237,3.988l0,0.886l-3.177,0l0,-1.1c0,-0.734 -0.143,-1.268 -0.428,-1.604c-0.285,-0.337 -0.703,-0.505 -1.253,-0.505c-1.12,0 -1.68,0.683 -1.68,2.048c0,0.774 0.208,1.497 0.626,2.169c0.418,0.672 1.176,1.487 2.276,2.445c1.406,1.222 2.373,2.332 2.903,3.33c0.53,0.998 0.795,2.17 0.795,3.514c0,1.752 -0.433,3.096 -1.299,4.033c-0.866,0.937 -2.124,1.406 -3.774,1.406Z" style="fill:#fff;fill-rule:nonzero;"/><path d="M124.745,82.232c-1.629,0 -2.872,-0.464 -3.727,-1.39c-0.856,-0.927 -1.284,-2.256 -1.284,-3.988l0,-16.317l3.361,0l0,16.562c0,0.733 0.148,1.262 0.444,1.588c0.295,0.326 0.718,0.489 1.268,0.489c0.55,0 0.972,-0.163 1.268,-0.489c0.295,-0.326 0.443,-0.855 0.443,-1.588l0,-16.562l3.239,0l0,16.317c0,1.732 -0.428,3.061 -1.284,3.988c-0.855,0.926 -2.098,1.39 -3.728,1.39Z" style="fill:#fff;fill-rule:nonzero;"/><path d="M132.14,60.537l3.361,0l0,18.334l5.531,0l0,3.055l-8.892,0l0,-21.389Z" style="fill:#fff;fill-rule:nonzero;"/><path d="M142.895,63.593l-3.513,0l0,-3.056l10.388,0l0,3.056l-3.513,0l0,18.333l-3.362,0l0,-18.333Z" style="fill:#fff;fill-rule:nonzero;"/><path d="M156.126,82.232c-1.65,0 -2.913,-0.469 -3.789,-1.406c-0.876,-0.937 -1.314,-2.261 -1.314,-3.972l0,-11.244c0,-1.711 0.438,-3.036 1.314,-3.973c0.876,-0.937 2.139,-1.405 3.789,-1.405c1.65,0 2.913,0.468 3.789,1.405c0.876,0.937 1.314,2.262 1.314,3.973l0,11.244c0,1.711 -0.438,3.035 -1.314,3.972c-0.876,0.937 -2.139,1.406 -3.789,1.406Zm0,-3.056c1.161,0 1.742,-0.702 1.742,-2.108l0,-11.672c0,-1.406 -0.581,-2.109 -1.742,-2.109c-1.161,0 -1.742,0.703 -1.742,2.109l0,11.672c0,1.406 0.581,2.108 1.742,2.108Z" style="fill:#fff;fill-rule:nonzero;"/><path d="M163.49,60.537l4.98,0c1.732,0 2.995,0.403 3.789,1.207c0.795,0.805 1.192,2.042 1.192,3.713l0,1.314c0,2.22 -0.733,3.626 -2.2,4.216l0,0.062c0.815,0.244 1.39,0.743 1.726,1.497c0.337,0.753 0.505,1.762 0.505,3.025l0,3.758c0,0.611 0.02,1.105 0.061,1.482c0.04,0.377 0.142,0.749 0.305,1.115l-3.422,0c-0.122,-0.346 -0.204,-0.672 -0.244,-0.977c-0.041,-0.306 -0.062,-0.856 -0.062,-1.65l0,-3.912c0,-0.977 -0.157,-1.66 -0.473,-2.047c-0.316,-0.387 -0.861,-0.58 -1.635,-0.58l-1.161,0l0,9.166l-3.361,0l0,-21.389Zm4.583,9.167c0.672,0 1.177,-0.173 1.513,-0.519c0.336,-0.347 0.504,-0.927 0.504,-1.742l0,-1.65c0,-0.774 -0.138,-1.334 -0.413,-1.681c-0.275,-0.346 -0.707,-0.519 -1.298,-0.519l-1.528,0l0,6.111l1.222,0Z" style="fill:#fff;fill-rule:nonzero;"/><path d="M175.804,60.537l9.166,0l0,3.056l-5.805,0l0,5.653l4.614,0l0,3.055l-4.614,0l0,6.57l5.805,0l0,3.055l-9.166,0l0,-21.389Z" style="fill:#fff;fill-rule:nonzero;"/><path d="M191.326,82.232c-1.63,0 -2.862,-0.464 -3.697,-1.39c-0.835,-0.927 -1.253,-2.256 -1.253,-3.988l0,-1.222l3.178,0l0,1.467c0,1.385 0.58,2.077 1.741,2.077c0.571,0 1.004,-0.168 1.299,-0.504c0.295,-0.336 0.443,-0.881 0.443,-1.635c0,-0.896 -0.204,-1.685 -0.611,-2.368c-0.407,-0.682 -1.161,-1.502 -2.261,-2.459c-1.385,-1.223 -2.353,-2.328 -2.903,-3.316c-0.55,-0.988 -0.825,-2.103 -0.825,-3.345c0,-1.691 0.428,-3 1.283,-3.927c0.856,-0.927 2.099,-1.39 3.728,-1.39c1.609,0 2.827,0.463 3.652,1.39c0.825,0.927 1.237,2.256 1.237,3.988l0,0.886l-3.178,0l0,-1.1c0,-0.734 -0.142,-1.268 -0.427,-1.604c-0.286,-0.337 -0.703,-0.505 -1.253,-0.505c-1.121,0 -1.681,0.683 -1.681,2.048c0,0.774 0.209,1.497 0.627,2.169c0.417,0.672 1.176,1.487 2.276,2.445c1.406,1.222 2.373,2.332 2.903,3.33c0.529,0.998 0.794,2.17 0.794,3.514c0,1.752 -0.433,3.096 -1.298,4.033c-0.866,0.937 -2.124,1.406 -3.774,1.406Z" style="fill:#fff;fill-rule:nonzero;"/></g><g><rect x="204.893" y="64.01" width="18.222" height="18.222" style="fill:#fff;"/><rect x="226.152" y="64.01" width="18.222" height="18.222" style="fill:#fff;"/><rect x="247.411" y="64.01" width="18.222" height="18.222" style="fill:#fff;"/><rect x="268.67" y="64.01" width="18.222" height="18.222" style="fill:#fff;"/><rect x="204.893" y="42.75" width="18.222" height="18.222" style="fill:#fff;"/><rect x="226.152" y="42.75" width="18.222" height="18.222" style="fill:#fff;"/><rect x="247.411" y="42.75" width="18.222" height="18.222" style="fill:#fff;"/><rect x="204.893" y="21.491" width="18.222" height="18.222" style="fill:#fff;"/><rect x="226.152" y="21.491" width="18.222" height="18.222" style="fill:#fff;"/><rect x="204.893" y="0.232" width="18.222" height="18.222" style="fill:#fff;"/></g></g></svg>