<?xml version="1.0" encoding="UTF-8" standalone="no"?><!DOCTYPE svg PUBLIC "-//W3C//DTD SVG 1.1//EN" "http://www.w3.org/Graphics/SVG/1.1/DTD/svg11.dtd"><svg width="100%" height="100%" viewBox="0 0 287 83" version="1.1" xmlns="http://www.w3.org/2000/svg" xmlns:xlink="http://www.w3.org/1999/xlink" xml:space="preserve" xmlns:serif="http://www.serif.com/" style="fill-rule:evenodd;clip-rule:evenodd;stroke-linejoin:round;stroke-miterlimit:2;"><g><g><path d="M12.57,52.486c-3.852,0 -6.765,-1.095 -8.739,-3.286c-1.974,-2.191 -2.961,-5.332 -2.961,-9.425l0,-2.889l7.511,0l0,3.467c0,3.274 1.372,4.911 4.117,4.911c1.348,0 2.371,-0.397 3.069,-1.192c0.698,-0.794 1.048,-2.082 1.048,-3.863c0,-2.119 -0.482,-3.985 -1.445,-5.598c-0.963,-1.613 -2.744,-3.551 -5.344,-5.814c-3.274,-2.888 -5.561,-5.501 -6.861,-7.836c-1.3,-2.335 -1.95,-4.971 -1.95,-7.908c0,-3.996 1.011,-7.09 3.033,-9.281c2.022,-2.19 4.959,-3.286 8.811,-3.286c3.804,0 6.681,1.096 8.631,3.286c1.95,2.191 2.925,5.333 2.925,9.425l0,2.095l-7.512,0l0,-2.6c0,-1.733 -0.337,-2.997 -1.011,-3.792c-0.674,-0.794 -1.661,-1.191 -2.961,-1.191c-2.648,0 -3.972,1.612 -3.972,4.838c0,1.83 0.493,3.539 1.481,5.128c0.987,1.589 2.78,3.515 5.38,5.778c3.322,2.889 5.609,5.513 6.861,7.872c1.252,2.359 1.878,5.128 1.878,8.306c0,4.14 -1.023,7.318 -3.069,9.533c-2.047,2.215 -5.02,3.322 -8.92,3.322Z" style="fill-rule:nonzero;"/><rect x="29.109" y="1.209" width="7.944" height="50.556" style="fill-rule:nonzero;"/><path d="M42.976,1.209l9.966,0l7.728,30.261l0.145,0l0,-30.261l7.077,0l0,50.555l-8.161,0l-9.533,-36.905l-0.145,0l0,36.905l-7.077,0l0,-50.555Z" style="fill-rule:nonzero;"/><path d="M73.815,1.209l21.666,0l0,7.222l-13.722,0l0,13.361l10.906,0l0,7.222l-10.906,0l0,15.528l13.722,0l0,7.222l-21.666,0l0,-50.555Z" style="fill-rule:nonzero;"/><path d="M100.031,1.209l11.772,0c4.093,0 7.078,0.95 8.956,2.852c1.878,1.902 2.817,4.827 2.817,8.775l0,3.106c0,5.248 -1.734,8.57 -5.2,9.967l0,0.144c1.926,0.578 3.286,1.757 4.08,3.539c0.795,1.781 1.192,4.165 1.192,7.15l0,8.883c0,1.445 0.048,2.612 0.144,3.503c0.097,0.891 0.337,1.769 0.723,2.636l-8.089,0c-0.289,-0.818 -0.482,-1.589 -0.578,-2.311c-0.096,-0.722 -0.145,-2.022 -0.145,-3.9l0,-9.244c0,-2.312 -0.373,-3.925 -1.119,-4.839c-0.746,-0.915 -2.034,-1.373 -3.864,-1.373l-2.744,0l0,21.667l-7.945,0l0,-50.555Zm10.834,21.666c1.588,0 2.78,-0.409 3.575,-1.228c0.794,-0.818 1.191,-2.19 1.191,-4.116l0,-3.9c0,-1.83 -0.325,-3.154 -0.975,-3.972c-0.65,-0.819 -1.673,-1.228 -3.069,-1.228l-3.611,0l0,14.444l2.889,0Z" style="fill-rule:nonzero;"/><path d="M140.403,52.486c-3.851,0 -6.788,-1.095 -8.811,-3.286c-2.022,-2.191 -3.033,-5.332 -3.033,-9.425l0,-26.578c0,-4.092 1.011,-7.234 3.033,-9.425c2.023,-2.19 4.96,-3.286 8.811,-3.286c3.852,0 6.789,1.096 8.812,3.286c2.022,2.191 3.033,5.333 3.033,9.425l0,4.334l-7.511,0l0,-4.839c0,-3.322 -1.372,-4.983 -4.117,-4.983c-2.744,0 -4.117,1.661 -4.117,4.983l0,27.661c0,3.274 1.373,4.911 4.117,4.911c2.745,0 4.117,-1.637 4.117,-4.911l0,-9.894l-3.972,0l0,-7.223l11.483,0l0,16.539c0,4.093 -1.011,7.234 -3.033,9.425c-2.023,2.191 -4.96,3.286 -8.812,3.286Z" style="fill-rule:nonzero;"/><rect x="157.376" y="1.209" width="7.944" height="50.556" style="fill-rule:nonzero;"/><path d="M177.381,1.209l10.761,0l8.234,50.555l-7.945,0l-1.444,-10.039l0,0.145l-9.028,0l-1.444,9.894l-7.367,0l8.233,-50.555Zm8.667,33.8l-3.539,-24.989l-0.144,0l-3.467,24.989l7.15,0Z" style="fill-rule:nonzero;"/></g><g><path d="M76.17,82.486c-1.609,0 -2.837,-0.458 -3.682,-1.375c-0.845,-0.916 -1.268,-2.21 -1.268,-3.88l0,-11.489c0,-1.671 0.423,-2.964 1.268,-3.881c0.845,-0.916 2.073,-1.375 3.682,-1.375c1.609,0 2.837,0.459 3.682,1.375c0.845,0.917 1.268,2.21 1.268,3.881l0,2.261l-3.178,0l0,-2.475c0,-1.324 -0.56,-1.986 -1.68,-1.986c-1.121,0 -1.681,0.662 -1.681,1.986l0,11.947c0,1.304 0.56,1.956 1.681,1.956c1.12,0 1.68,-0.652 1.68,-1.956l0,-3.269l3.178,0l0,3.025c0,1.67 -0.423,2.964 -1.268,3.88c-0.845,0.917 -2.073,1.375 -3.682,1.375Z" style="fill-rule:nonzero;"/><path d="M88.056,82.486c-1.65,0 -2.913,-0.468 -3.789,-1.405c-0.876,-0.937 -1.314,-2.261 -1.314,-3.972l0,-11.245c0,-1.711 0.438,-3.035 1.314,-3.972c0.876,-0.937 2.139,-1.406 3.789,-1.406c1.65,0 2.913,0.469 3.789,1.406c0.876,0.937 1.314,2.261 1.314,3.972l0,11.245c0,1.711 -0.438,3.035 -1.314,3.972c-0.876,0.937 -2.139,1.405 -3.789,1.405Zm0,-3.055c1.161,0 1.742,-0.703 1.742,-2.109l0,-11.672c0,-1.405 -0.581,-2.108 -1.742,-2.108c-1.161,0 -1.741,0.703 -1.741,2.108l0,11.672c0,1.406 0.58,2.109 1.741,2.109Z" style="fill-rule:nonzero;"/><path d="M95.42,60.792l4.217,0l3.269,12.803l0.061,0l0,-12.803l2.995,0l0,21.389l-3.453,0l-4.033,-15.614l-0.061,0l0,15.614l-2.995,0l0,-21.389Z" style="fill-rule:nonzero;"/><path d="M112.837,82.486c-1.63,0 -2.862,-0.463 -3.697,-1.39c-0.836,-0.927 -1.253,-2.256 -1.253,-3.987l0,-1.223l3.178,0l0,1.467c0,1.385 0.58,2.078 1.741,2.078c0.571,0 1.003,-0.168 1.299,-0.504c0.295,-0.337 0.443,-0.881 0.443,-1.635c0,-0.896 -0.204,-1.686 -0.611,-2.368c-0.408,-0.683 -1.161,-1.503 -2.261,-2.46c-1.386,-1.222 -2.353,-2.327 -2.903,-3.315c-0.55,-0.988 -0.825,-2.103 -0.825,-3.346c0,-1.691 0.428,-3 1.283,-3.926c0.856,-0.927 2.098,-1.391 3.728,-1.391c1.609,0 2.826,0.464 3.651,1.391c0.825,0.926 1.238,2.256 1.238,3.987l0,0.886l-3.178,0l0,-1.1c0,-0.733 -0.143,-1.268 -0.428,-1.604c-0.285,-0.336 -0.702,-0.504 -1.252,-0.504c-1.121,0 -1.681,0.682 -1.681,2.047c0,0.774 0.209,1.497 0.626,2.17c0.418,0.672 1.177,1.487 2.277,2.444c1.405,1.222 2.373,2.332 2.903,3.331c0.529,0.998 0.794,2.169 0.794,3.513c0,1.752 -0.433,3.097 -1.299,4.034c-0.865,0.937 -2.123,1.405 -3.773,1.405Z" style="fill-rule:nonzero;"/><path d="M124.723,82.486c-1.63,0 -2.872,-0.463 -3.728,-1.39c-0.855,-0.927 -1.283,-2.256 -1.283,-3.987l0,-16.317l3.361,0l0,16.561c0,0.733 0.148,1.263 0.443,1.589c0.295,0.326 0.718,0.489 1.268,0.489c0.55,0 0.973,-0.163 1.268,-0.489c0.295,-0.326 0.443,-0.856 0.443,-1.589l0,-16.561l3.239,0l0,16.317c0,1.731 -0.428,3.06 -1.283,3.987c-0.856,0.927 -2.099,1.39 -3.728,1.39Z" style="fill-rule:nonzero;"/><path d="M132.117,60.792l3.361,0l0,18.333l5.531,0l0,3.056l-8.892,0l0,-21.389Z" style="fill-rule:nonzero;"/><path d="M142.873,63.847l-3.514,0l0,-3.055l10.389,0l0,3.055l-3.514,0l0,18.334l-3.361,0l0,-18.334Z" style="fill-rule:nonzero;"/><path d="M156.103,82.486c-1.65,0 -2.913,-0.468 -3.788,-1.405c-0.876,-0.937 -1.314,-2.261 -1.314,-3.972l0,-11.245c0,-1.711 0.438,-3.035 1.314,-3.972c0.875,-0.937 2.138,-1.406 3.788,-1.406c1.65,0 2.913,0.469 3.789,1.406c0.876,0.937 1.314,2.261 1.314,3.972l0,11.245c0,1.711 -0.438,3.035 -1.314,3.972c-0.876,0.937 -2.139,1.405 -3.789,1.405Zm0,-3.055c1.162,0 1.742,-0.703 1.742,-2.109l0,-11.672c0,-1.405 -0.58,-2.108 -1.742,-2.108c-1.161,0 -1.741,0.703 -1.741,2.108l0,11.672c0,1.406 0.58,2.109 1.741,2.109Z" style="fill-rule:nonzero;"/><path d="M163.467,60.792l4.981,0c1.731,0 2.994,0.402 3.789,1.207c0.794,0.804 1.191,2.042 1.191,3.712l0,1.314c0,2.221 -0.733,3.626 -2.2,4.217l0,0.061c0.815,0.244 1.391,0.743 1.727,1.497c0.336,0.754 0.504,1.762 0.504,3.025l0,3.759c0,0.611 0.02,1.105 0.061,1.481c0.041,0.377 0.143,0.749 0.306,1.116l-3.423,0c-0.122,-0.347 -0.203,-0.672 -0.244,-0.978c-0.041,-0.306 -0.061,-0.856 -0.061,-1.65l0,-3.911c0,-0.978 -0.158,-1.66 -0.474,-2.047c-0.316,-0.387 -0.86,-0.581 -1.634,-0.581l-1.162,0l0,9.167l-3.361,0l0,-21.389Zm4.584,9.167c0.672,0 1.176,-0.174 1.512,-0.52c0.336,-0.346 0.504,-0.927 0.504,-1.742l0,-1.65c0,-0.774 -0.137,-1.334 -0.412,-1.68c-0.275,-0.346 -0.708,-0.52 -1.299,-0.52l-1.528,0l0,6.112l1.223,0Z" style="fill-rule:nonzero;"/><path d="M175.781,60.792l9.167,0l0,3.055l-5.806,0l0,5.653l4.614,0l0,3.056l-4.614,0l0,6.569l5.806,0l0,3.056l-9.167,0l0,-21.389Z" style="fill-rule:nonzero;"/><path d="M191.303,82.486c-1.629,0 -2.862,-0.463 -3.697,-1.39c-0.835,-0.927 -1.253,-2.256 -1.253,-3.987l0,-1.223l3.178,0l0,1.467c0,1.385 0.581,2.078 1.742,2.078c0.57,0 1.003,-0.168 1.298,-0.504c0.296,-0.337 0.444,-0.881 0.444,-1.635c0,-0.896 -0.204,-1.686 -0.612,-2.368c-0.407,-0.683 -1.161,-1.503 -2.261,-2.46c-1.385,-1.222 -2.352,-2.327 -2.902,-3.315c-0.55,-0.988 -0.825,-2.103 -0.825,-3.346c0,-1.691 0.427,-3 1.283,-3.926c0.855,-0.927 2.098,-1.391 3.728,-1.391c1.609,0 2.826,0.464 3.651,1.391c0.825,0.926 1.238,2.256 1.238,3.987l0,0.886l-3.178,0l0,-1.1c0,-0.733 -0.143,-1.268 -0.428,-1.604c-0.285,-0.336 -0.703,-0.504 -1.253,-0.504c-1.12,0 -1.68,0.682 -1.68,2.047c0,0.774 0.208,1.497 0.626,2.17c0.418,0.672 1.176,1.487 2.276,2.444c1.406,1.222 2.374,2.332 2.903,3.331c0.53,0.998 0.795,2.169 0.795,3.513c0,1.752 -0.433,3.097 -1.299,4.034c-0.866,0.937 -2.124,1.405 -3.774,1.405Z" style="fill-rule:nonzero;"/></g><g><rect x="204.87" y="64.264" width="18.222" height="18.222"/><rect x="226.129" y="64.264" width="18.222" height="18.222"/><rect x="247.389" y="64.264" width="18.222" height="18.222"/><rect x="268.648" y="64.264" width="18.222" height="18.222"/><rect x="204.87" y="43.005" width="18.222" height="18.222"/><rect x="226.129" y="43.005" width="18.222" height="18.222"/><rect x="247.389" y="43.005" width="18.222" height="18.222"/><rect x="204.87" y="21.746" width="18.222" height="18.222"/><rect x="226.129" y="21.746" width="18.222" height="18.222"/><rect x="204.87" y="0.486" width="18.222" height="18.222"/></g></g></svg>