<svg id="Capa_1" enable-background="new 0 0 512.047 512.047" height="512" viewBox="0 0 512.047 512.047" width="512" xmlns="http://www.w3.org/2000/svg"><g><path d="m63.716 272.221c-5.01-56.383 14.718-111.712 54.125-151.8 29.432-29.933 66.915-49.062 108.397-55.316 40.091-6.045 81.847.824 117.574 19.345 2.426 1.258 2.7 3.71.786 5.824l-17.281 17.311c-11.479 11.502-3.568 31.891 13.188 31.885h.041l90.13-.187c10.319-.024 18.71-8.433 18.703-18.747l-.093-89.993c.154-16.521-20.723-24.602-31.935-13.144l-21.287 21.322c-1.228 1.231-3.136 1.479-4.54.592-53.583-33.843-117.739-46.426-180.644-35.428-4.081.713-6.811 4.599-6.097 8.679.713 4.081 4.599 6.811 8.679 6.097 59.235-10.352 119.625 1.485 170.051 33.333 7.282 4.603 17.026 3.479 23.169-2.675l21.286-21.322c2.828-2.538 6.15-.917 6.319 2.555l.093 89.997c.001 2.055-1.676 3.729-3.736 3.734l-90.129.187h-.01c-3.596-.169-5.071-3.547-2.572-6.287l17.281-17.31c8.783-8.687 6.414-24.083-4.498-29.74-38.517-19.967-83.518-27.371-126.714-20.86-44.721 6.744-85.129 27.364-116.857 59.633-42.494 43.229-63.77 102.875-58.37 163.645.444 4.993-1.288 9.848-4.753 13.317-4.672 4.678-11.162 6.13-17.362 3.89-6.092-2.204-10.077-7.36-10.66-13.793-6.443-71.068 18.53-140.682 68.515-190.996 27-27.185 59.056-46.997 95.275-58.888 3.936-1.292 6.079-5.529 4.787-9.465-1.292-3.935-5.527-6.078-9.465-4.787-38.492 12.637-72.555 33.688-101.239 62.568-53.117 53.467-79.656 127.428-72.814 202.92 1.106 12.199 8.961 22.371 20.497 26.544 3.566 1.29 7.229 1.919 10.847 1.919 8.193-.001 16.156-3.229 22.233-9.316 6.608-6.617 9.918-15.818 9.08-25.243zm180.36 137.743c1.062.521 2.188.769 3.298.769 2.771 0 5.436-1.542 6.739-4.198 9.465-19.288 19.643-45.938 24.596-78.084 18.876-12.091 48.835-36.809 55.859-75.043 5.222-28.427-3.088-59.453-23.396-87.367-20.797-28.584-52.747-51.303-89.964-63.972-4.413-1.504-9.18-.622-12.749 2.357-3.567 2.976-5.287 7.502-4.601 12.108 2.919 19.583-1.598 39.487-10.091 55.8-2.306 4.429-4.689 9.007-7.056 14.739-8.011 19.405-14.868 50.892-7.832 75.762 6.073 21.464 23.385 39.901 50.063 53.318 13.471 6.775 26.543 10.87 34.459 12.991-4.832 29.025-14.107 53.158-22.756 70.783-1.823 3.718-.288 8.212 3.431 10.037zm-50.763-151.214c-4.041-14.281-3.362-40.214 7.264-65.954 2.112-5.118 4.341-9.397 6.495-13.536 10.248-19.687 14.981-38.032 12.016-62.046 33.148 11.84 61.464 32.236 79.955 57.65 17.866 24.557 25.244 51.488 20.771 75.831-2.375 12.929-10.629 36.312-38.814 57.874 1.6-20.536.359-43.707-3.112-64.649 3.857-3.563 7.188-7.6 9.919-12.056 6.942-11.325 8.437-22.671 8.467-30.194.017-4.142-3.327-7.514-7.47-7.53h-.031c-4.127 0-7.482 3.338-7.499 7.47-.024 5.947-1.704 15.768-7.257 23.971-4.867-19.549-11.987-38.563-21.343-56.842-1.888-3.688-6.407-5.146-10.093-3.259-3.688 1.887-5.146 6.406-3.259 10.093 12.115 23.669 20.288 48.63 24.387 74.415-1.307-1.209-2.627-2.401-3.975-3.559-9.617-8.26-20.31-15.244-31.781-20.76-3.73-1.794-8.214-.222-10.01 3.51-1.794 3.733-.223 8.215 3.51 10.01 10.293 4.947 19.884 11.212 28.508 18.619 5.948 5.108 11.453 10.791 16.401 16.907.788 13.835.369 27.014-.927 39.432-18.671-5.24-62.383-20.976-72.122-55.397zm310.811-65.376c-2.803-11.004-11.031-19.37-22.012-22.38-11.092-3.039-22.576.009-30.713 8.158-7.804 7.815-10.964 19.307-8.249 29.987 10.333 40.655 6.976 84.4-9.455 123.177-1.616 3.813.165 8.216 3.979 9.831 3.812 1.617 8.215-.164 9.831-3.979 17.702-41.775 21.318-88.911 10.182-132.724-1.419-5.585.238-11.599 4.327-15.694 4.276-4.282 10.312-5.887 16.132-4.289 5.711 1.565 9.988 5.907 11.442 11.616 11.437 44.893 9.69 91.981-5.05 136.175-15.101 45.278-43.026 84.612-80.756 113.748-43.52 33.598-97.775 51.34-152.722 49.965-54.177-1.357-106.73-21.07-147.984-55.509-6.618-5.52-16.422-5.684-23.311-.39l-23.888 18.353c-2.995 2.083-6.236.32-5.925-3.364l11.751-89.278c.27-2.043 2.155-3.49 4.199-3.222l89.31 11.645c3.693.673 4.48 4.224 1.731 6.578l-19.404 14.905c-9.85 7.426-9.67 22.928.549 30.077 35.534 24.861 79.113 38.104 122.804 37.326 45.196-.819 87.941-15.97 123.614-43.814 18.008-14.054 33.434-30.835 45.848-49.878 2.262-3.47 1.282-8.116-2.188-10.379-3.473-2.264-8.116-1.283-10.379 2.188-11.508 17.652-25.811 33.211-42.51 46.245-33.091 25.828-72.738 39.882-114.658 40.642-40.517.703-80.976-11.561-113.938-34.624-2.197-1.537-2.202-4.041-.006-5.886l19.407-14.907c13.087-9.879 6.901-31.438-8.929-33.347l-89.312-11.646c-10.227-1.331-19.656 5.905-21.008 16.136l-11.752 89.283c-.986 7.511 2.611 14.809 9.166 18.594 6.576 3.795 14.725 3.26 20.765-1.375l23.893-18.356c1.372-1.054 3.292-1.047 4.562.013 43.839 36.597 99.673 57.545 157.219 58.986 58.286 1.46 116.045-17.394 162.265-53.087 40.096-30.964 69.771-72.762 85.819-120.875 15.651-46.929 17.502-96.939 5.354-144.625z"/></g></svg>