<svg id="Layer_5" enable-background="new 0 0 64 64" height="512" viewBox="0 0 64 64" width="512" xmlns="http://www.w3.org/2000/svg"><g><path d="m48.358 14.382c-.999-2.621-3.553-4.382-6.358-4.382s-5.359 1.761-6.358 4.382l-3.713 9.746-1.515-3.786c-.696-1.738-2.032-3.057-3.672-3.765.17-.844.258-1.707.258-2.577 0-7.168-5.832-13-13-13s-13 5.832-13 13 5.832 13 13 13c.315 0 .629-.026.943-.049l-8.936 22.338c-2.883.856-5.007 3.546-5.007 6.711 0 3.86 3.141 7 7 7h22c1.304 0 2.539-.369 3.632-1.038.961.654 2.12 1.038 3.368 1.038h19c3.859 0 7-3.14 7-7v-3.184zm-13.183 36.91c-1.318-1.446-3.2-2.292-5.175-2.292-1.005 0-1.996.219-2.909.639-.642-.608-1.413-1.049-2.237-1.321l8.378-21.992c.105.319.209.646.311.973.722 2.31 1.468 4.701 3.452 4.701 1.985 0 2.732-2.391 3.454-4.702.335-1.071 1.031-3.298 1.545-3.298.516 0 1.213 2.228 1.548 3.299.723 2.311 1.47 4.701 3.455 4.701s2.733-2.39 3.456-4.702c.103-.328.207-.656.313-.977l9.081 23.837c-1.105-.73-2.426-1.158-3.847-1.158-.443 0-.885.043-1.322.129-.793-2.418-3.064-4.129-5.678-4.129-1.801 0-3.473.8-4.606 2.173-.464-.115-.93-.173-1.394-.173-2.58 0-4.822 1.639-5.651 4.011-.759-.047-1.49.059-2.174.281zm-19.629-17.994c.722 2.312 1.468 4.702 3.452 4.702s2.731-2.39 3.453-4.701c.335-1.071 1.031-3.299 1.546-3.299.516 0 1.212 2.228 1.547 3.298.436 1.391.854 2.712 1.518 3.604l-4.236 11.119c-.622.017-1.244.121-1.844.342-1.256-2.071-3.507-3.363-5.982-3.363-2.749 0-5.2 1.589-6.339 4.033-.131-.013-.26-.012-.389-.018l6.832-17.08c.155.444.302.915.442 1.363zm21.965-18.204c.705-1.851 2.509-3.094 4.489-3.094s3.784 1.243 4.489 3.094l3.248 8.526c-.485.863-.848 1.98-1.192 3.081-.335 1.071-1.032 3.299-1.548 3.299s-1.212-2.228-1.547-3.298c-.722-2.311-1.47-4.702-3.456-4.702-1.984 0-2.731 2.39-3.453 4.701-.335 1.071-1.031 3.299-1.546 3.299-.514 0-1.235-2.312-1.543-3.298-.344-1.101-.706-2.217-1.19-3.08zm-8.954 5.991 2.321 5.802-2.86 7.508c-.199-.533-.387-1.128-.564-1.693-.724-2.312-1.472-4.702-3.457-4.702s-2.732 2.391-3.454 4.702c-.335 1.071-1.031 3.298-1.545 3.298s-1.209-2.228-1.543-3.298c-.392-1.257-.778-2.437-1.333-3.314l3.321-8.303c.75-1.874 2.538-3.085 4.557-3.085s3.807 1.211 4.557 3.085zm-14.557 3.915c-6.065 0-11-4.935-11-11s4.935-11 11-11 11 4.935 11 11c0 .696-.088 1.382-.217 2.059-.259-.03-.518-.059-.783-.059-2.841 0-5.358 1.705-6.414 4.342l-1.799 4.499c-.59.096-1.187.159-1.787.159zm-6 36c-2.757 0-5-2.243-5-5 0-3.109 2.87-5.585 6.081-4.879l.886.194.28-.861c.672-2.066 2.582-3.454 4.753-3.454 2.018 0 3.828 1.203 4.61 3.063l.438 1.041.98-.56c1.752-1.001 3.865-.535 5.072.965l.551.684.75-.458c.787-.481 1.687-.735 2.599-.735 1.234 0 2.415.465 3.323 1.272-1.406 1.1-2.323 2.813-2.323 4.728 0 1.309.426 2.518 1.141 3.505-.664.317-1.386.495-2.141.495zm48 0h-19c-2.206 0-4-1.794-4-4s1.794-4 4-4c.275 0 .561.034.871.103l1.02.227.182-1.028c.421-2.375 2.903-3.966 5.349-3.026l.766.294.438-.694c.74-1.175 2.002-1.876 3.374-1.876 1.996 0 3.692 1.503 3.944 3.498l.157 1.246 1.18-.432c.563-.208 1.141-.312 1.719-.312 2.757 0 5 2.243 5 5s-2.243 5-5 5z"/><path d="m15 51h-2c0 2.206 1.794 4 4 4v-2c-1.103 0-2-.897-2-2z"/><path d="m7 54v2c.408 0 1 .779 1 2h2c0-2.243-1.317-4-3-4z"/><path d="m24 55v2c.408 0 1 .779 1 2h2c0-2.243-1.317-4-3-4z"/><path d="m38 58h2c0-1.103.897-2 2-2v-2c-2.206 0-4 1.794-4 4z"/><path d="m49 51v2c.408 0 1 .779 1 2h2c0-2.243-1.317-4-3-4z"/><path d="m55 54v2c1.103 0 2 .897 2 2h2c0-2.206-1.794-4-4-4z"/><path d="m7 14h-2c0 4.962 4.037 9 9 9v-2c-3.859 0-7-3.14-7-7z"/></g></svg>